<?xml version="1.0" standalone="no"?><!DOCTYPE svg PUBLIC "-//W3C//DTD SVG 1.1//EN" "http://www.w3.org/Graphics/SVG/1.1/DTD/svg11.dtd"><svg t="1719372600440" class="icon" viewBox="0 0 1024 1024" version="1.1" xmlns="http://www.w3.org/2000/svg" p-id="1179" xmlns:xlink="http://www.w3.org/1999/xlink" width="1000" height="1000"><path d="M788.014 1004h-728c-22.092 0-40-17.908-40-40V60c0-22.092 17.908-40 40-40h728c22.092 0 40 17.908 40 40v904c0 22.092-17.908 40-40 40z" fill="#FFFFFF" p-id="1180"></path><path d="M424.02 292m-164 0a164 164 0 1 0 328 0 164 164 0 1 0-328 0Z" fill="#FE6663" p-id="1181"></path><path d="M476.014 271v13c0 28.718-23.282 52-52 52s-52-23.282-52-52v-13c0-28.718 23.282-52 52-52s52 23.282 52 52z" fill="#FFCDAC" p-id="1182"></path><path d="M424.014 336c-50.76 0-94.128 31.534-111.664 76.066C341.63 439.31 380.864 456 424.014 456s82.384-16.69 111.664-43.934C518.142 367.534 474.774 336 424.014 336z" fill="#A5DDFF" p-id="1183"></path><path d="M873.148 321.18l11.428-19.794c17.674-30.61 56.814-41.098 87.426-23.426 30.61 17.674 41.098 56.814 23.426 87.426L743.746 801.312l-110.852-64 108.564-188.04 131.69-228.092z" fill="#FFBC53" p-id="1184"></path><path d="M972.004 277.96c-30.61-17.674-69.752-7.186-87.426 23.426l-29.714 51.466 110.852 64 29.714-51.466c17.672-30.61 7.184-69.752-23.426-87.426z" fill="#FE6663" p-id="1185"></path><path d="M743.746 801.312L615.178 896l17.716-158.688z" fill="#9AD8FF" p-id="1186"></path><path d="M828.014 796.656c-11.044 0-20 8.954-20 20V964c0 11.028-8.972 20-20 20h-728c-11.028 0-20-8.972-20-20V60c0-11.028 8.972-20 20-20h728c11.028 0 20 8.972 20 20v217.5c0 11.046 8.956 20 20 20s20-8.954 20-20V60c0-33.084-26.916-60-60-60h-728c-33.084 0-60 26.916-60 60v904c0 33.084 26.916 60 60 60h728c33.084 0 60-26.916 60-60v-147.344c0-11.046-8.956-20-20-20z" p-id="1187"></path><path d="M608.014 292c0-101.458-82.542-184-184-184s-184 82.542-184 184c0 52.634 22.22 100.17 57.764 133.738 0.666 0.712 1.374 1.386 2.148 2 32.742 29.958 76.316 48.26 124.086 48.26s91.344-18.304 124.086-48.26a19.986 19.986 0 0 0 2.148-2c35.548-33.568 57.768-81.104 57.768-133.738z m-184-144c79.402 0 144 64.598 144 144 0 31.934-10.462 61.46-28.12 85.366a138.75 138.75 0 0 0-58.926-49.394c9.42-12.174 15.046-27.424 15.046-43.972v-13c0-39.702-32.298-72-72-72s-72 32.298-72 72v13c0 16.548 5.626 31.798 15.046 43.972a138.75 138.75 0 0 0-58.926 49.394c-17.658-23.906-28.12-53.432-28.12-85.366 0-79.402 64.598-144 144-144z m-32 136v-13c0-17.644 14.356-32 32-32s32 14.356 32 32v13c0 17.644-14.356 32-32 32s-32-14.356-32-32z m-54.982 122.664c17.578-31.17 50.38-50.664 86.982-50.664s69.404 19.494 86.982 50.664C486.81 425.056 456.672 436 424.014 436s-62.798-10.944-86.982-29.336zM532.014 876h-108c-11.044 0-20 8.954-20 20s8.956 20 20 20h108c11.044 0 20-8.954 20-20s-8.956-20-20-20zM532.014 764h-284c-11.044 0-20 8.954-20 20s8.956 20 20 20h284c11.044 0 20-8.954 20-20s-8.956-20-20-20zM532.014 652h-284c-11.044 0-20 8.954-20 20s8.956 20 20 20h284c11.044 0 20-8.954 20-20s-8.956-20-20-20zM176.732 545.86a20.154 20.154 0 0 0-14.158-5.86c-5.262 0-10.422 2.14-14.14 5.86-3.72 3.72-5.86 8.88-5.86 14.14s2.138 10.42 5.86 14.14a20.184 20.184 0 0 0 14.14 5.86c5.28 0 10.42-2.14 14.158-5.86 3.72-3.72 5.862-8.88 5.862-14.14s-2.14-10.42-5.862-14.14zM176.732 657.86a20.19 20.19 0 0 0-14.158-5.86c-5.262 0-10.4 2.14-14.14 5.86-3.72 3.72-5.86 8.88-5.86 14.14s2.138 10.42 5.86 14.14a20.184 20.184 0 0 0 14.14 5.86c5.28 0 10.42-2.14 14.158-5.86 3.72-3.72 5.862-8.88 5.862-14.14s-2.14-10.42-5.862-14.14zM162.574 764c-5.262 0-10.4 2.14-14.14 5.86-3.72 3.72-5.86 8.88-5.86 14.14s2.138 10.42 5.86 14.14a20.144 20.144 0 0 0 14.14 5.86c5.28 0 10.44-2.14 14.158-5.86 3.72-3.72 5.862-8.88 5.862-14.14s-2.14-10.42-5.862-14.14a20.19 20.19 0 0 0-14.158-5.86zM532.014 540h-284c-11.044 0-20 8.954-20 20s8.956 20 20 20h284c11.044 0 20-8.954 20-20s-8.956-20-20-20zM982.004 260.64c-19.43-11.218-42.066-14.198-63.742-8.392-21.672 5.808-39.788 19.708-51.004 39.138L615.574 727.312a20.032 20.032 0 0 0-2.556 7.782l-17.716 158.688a20.008 20.008 0 0 0 19.874 22.22 19.98 19.98 0 0 0 11.862-3.896l128.568-94.688a19.966 19.966 0 0 0 5.46-6.104l251.682-435.926c23.16-40.112 9.368-91.588-30.744-114.748zM649.378 769.924l57.884 33.42-67.136 49.444 9.252-82.864z m87.048 4.068l-76.21-44 201.97-349.82 76.21 44-201.97 349.82z m241.682-418.606l-19.714 34.146-76.21-44 19.714-34.146a43.71 43.71 0 0 1 26.716-20.5 43.7 43.7 0 0 1 33.388 4.396 43.71 43.71 0 0 1 20.5 26.716 43.712 43.712 0 0 1-4.394 33.388z" p-id="1188"></path></svg>